<svg width="38" height="42" viewBox="0 0 38 42" fill="none" xmlns="http://www.w3.org/2000/svg">
<path d="M4.21144 22.808H4.19218C3.06764 22.808 2.15576 23.7136 2.15576 24.8304V32.6078C2.15576 33.7246 3.06764 34.6302 4.19218 34.6302H33.5973C34.7219 34.6302 35.6338 33.7246 35.6338 32.6078V24.8304C35.6338 23.7136 34.7219 22.808 33.5973 22.808C32.4705 22.808 31.5578 21.8989 31.5609 20.7799L31.579 14.7352C31.579 7.78346 25.9043 2.14783 18.9044 2.14783C11.9044 2.14783 6.22975 7.78346 6.22975 14.7352L6.24786 20.7799C6.25133 21.8989 5.33868 22.808 4.21144 22.808Z" stroke="#707070" stroke-width="4" stroke-miterlimit="10"/>
<path d="M18.1408 34.6302H12.9832C13.3268 37.5701 15.8421 39.8523 18.8948 39.8523C21.9475 39.8523 24.4628 37.5701 24.8064 34.6302H18.1408Z" stroke="#707070" stroke-width="4" stroke-miterlimit="10"/>
</svg>
