<svg width="44" height="40" viewBox="0 0 44 40" fill="none" xmlns="http://www.w3.org/2000/svg">
<g clip-path="url(#clip0_720_214)">
<path d="M22.849 15.897L23.163 16.6459L23.9102 16.9638L32.9708 20.8197L23.9102 24.6756L23.163 24.9936L22.849 25.7425L19.0391 34.8281L15.2293 25.7425L14.9153 24.9936L14.1681 24.6756L5.10748 20.8197L14.1681 16.9638L14.9153 16.6459L15.2293 15.897L19.0391 6.81133L22.849 15.897Z" stroke="#707070" stroke-width="4"/>
<path d="M35.7316 6.68936L36.0456 7.43811L36.7927 7.75609L38.3415 8.4153L36.7927 9.07451L36.0456 9.39249L35.7316 10.1412L35.0949 11.6594L34.4582 10.1412L34.1442 9.39249L33.3971 9.07451L31.8484 8.4153L33.3971 7.75609L34.1442 7.43811L34.4582 6.68936L35.0949 5.17123L35.7316 6.68936Z" stroke="#707070" stroke-width="4"/>
</g>
<defs>
<clipPath id="clip0_720_214">
<rect width="43.4483" height="40" fill="white"/>
</clipPath>
</defs>
</svg>
