<svg width="26" height="26" viewBox="0 0 26 26" fill="none" xmlns="http://www.w3.org/2000/svg">
<g id="Group 10">
<path id="Vector" d="M13 24C19.0751 24 24 19.0751 24 13C24 6.92487 19.0751 2 13 2C6.92487 2 2 6.92487 2 13C2 19.0751 6.92487 24 13 24Z" stroke="white" stroke-width="3" stroke-miterlimit="10"/>
<path id="Vector_2" d="M4.18906 19.3031C4.18906 19.3031 12.7883 13.8718 21.8165 19.3031" stroke="white" stroke-width="3" stroke-miterlimit="10"/>
<path id="Vector_3" d="M13 13.7857C15.1697 13.7857 16.9286 12.0268 16.9286 9.85716C16.9286 7.68747 15.1697 5.92859 13 5.92859C10.8303 5.92859 9.07143 7.68747 9.07143 9.85716C9.07143 12.0268 10.8303 13.7857 13 13.7857Z" fill="white"/>
</g>
</svg>
